<svg width="61" height="61" viewBox="0 0 61 61" fill="none" xmlns="http://www.w3.org/2000/svg">
<path d="M30.0653 29.3839C34.1021 29.3839 37.5972 27.9361 40.4538 25.0795C43.3095 22.2234 44.7578 18.7288 44.7578 14.6915C44.7578 10.6556 43.3099 7.16052 40.4534 4.30348C37.5968 1.44784 34.1017 0 30.0653 0C26.028 0 22.5334 1.44784 19.6773 4.30395C16.8212 7.16006 15.3729 10.6552 15.3729 14.6915C15.3729 18.7288 16.8212 22.2239 19.6773 25.08C22.5343 27.9356 26.0294 29.3839 30.0653 29.3839V29.3839ZM22.2053 6.83149C24.3968 4.63996 26.9677 3.57468 30.0653 3.57468C33.1625 3.57468 35.7338 4.63996 37.9258 6.83149C40.1173 9.02349 41.1831 11.5948 41.1831 14.6915C41.1831 17.7892 40.1173 20.36 37.9258 22.552C35.7338 24.744 33.1625 25.8093 30.0653 25.8093C26.9686 25.8093 24.3978 24.7435 22.2053 22.552C20.0133 20.3604 18.9475 17.7892 18.9475 14.6915C18.9475 11.5948 20.0133 9.02349 22.2053 6.83149Z" fill="#767793" fill-opacity="0.63"/>
<path d="M55.7732 46.906C55.6908 45.7173 55.5242 44.4208 55.2789 43.0516C55.0313 41.6722 54.7125 40.3681 54.3309 39.1763C53.9363 37.9444 53.4006 36.7278 52.7374 35.562C52.05 34.352 51.2421 33.2983 50.3355 32.4313C49.3875 31.5243 48.2268 30.795 46.8846 30.2631C45.5471 29.7339 44.0648 29.4658 42.4792 29.4658C41.8565 29.4658 41.2543 29.7213 40.0913 30.4785C39.3755 30.9453 38.5383 31.4852 37.6038 32.0823C36.8047 32.5914 35.7222 33.0684 34.3851 33.5003C33.0806 33.9224 31.7561 34.1365 30.4483 34.1365C29.1415 34.1365 27.817 33.9224 26.5116 33.5003C25.1759 33.0689 24.0929 32.5919 23.2952 32.0827C22.3696 31.4912 21.5319 30.9514 20.8054 30.4781C19.6433 29.7209 19.0411 29.4654 18.4184 29.4654C16.8323 29.4654 15.3505 29.7339 14.0135 30.2635C12.6722 30.7945 11.511 31.5238 10.5621 32.4318C9.65551 33.2993 8.84759 34.3525 8.16067 35.562C7.49841 36.7278 6.96228 37.9439 6.56763 39.1767C6.18647 40.3686 5.86768 41.6722 5.62009 43.0516C5.37436 44.4189 5.20821 45.7159 5.12584 46.9073C5.04486 48.0722 5.00391 49.2846 5.00391 50.5095C5.00391 53.6937 6.01614 56.2715 8.01221 58.1726C9.98361 60.0486 12.5917 60.9999 15.7643 60.9999H45.1361C48.3078 60.9999 50.9159 60.0486 52.8877 58.1726C54.8843 56.2729 55.8965 53.6942 55.8965 50.509C55.896 49.2799 55.8546 48.0676 55.7732 46.906V46.906ZM50.423 55.5827C49.1204 56.8225 47.391 57.4252 45.1357 57.4252H15.7643C13.5085 57.4252 11.7791 56.8225 10.4769 55.5832C9.19942 54.3671 8.57859 52.7071 8.57859 50.5095C8.57859 49.3665 8.61629 48.2379 8.69168 47.1545C8.76521 46.0915 8.91553 44.9238 9.13846 43.6831C9.35859 42.4577 9.63876 41.3077 9.97198 40.2667C10.2917 39.2684 10.7278 38.2799 11.2686 37.3277C11.7847 36.4202 12.3785 35.6416 13.0338 35.0142C13.6467 34.4274 14.4193 33.9471 15.3296 33.5869C16.1715 33.2537 17.1176 33.0712 18.1447 33.0438C18.2699 33.1103 18.4929 33.2374 18.854 33.4729C19.5889 33.9518 20.4359 34.4981 21.3722 35.0962C22.4278 35.7691 23.7876 36.3769 25.4123 36.9014C27.0733 37.4385 28.7673 37.7112 30.4488 37.7112C32.1303 37.7112 33.8248 37.4385 35.4848 36.9019C37.1109 36.3765 38.4703 35.7691 39.5272 35.0952C40.4855 34.4828 41.3088 33.9522 42.0436 33.4729C42.4048 33.2378 42.6277 33.1103 42.7529 33.0438C43.7805 33.0712 44.7266 33.2537 45.569 33.5869C46.4788 33.9471 47.2514 34.4279 47.8643 35.0142C48.5196 35.6411 49.1134 36.4197 49.6295 37.3282C50.1708 38.2799 50.6073 39.2689 50.9266 40.2662C51.2603 41.3087 51.5409 42.4582 51.7606 43.6826C51.983 44.9257 52.1338 46.0938 52.2073 47.1549V47.1559C52.2832 48.2351 52.3214 49.3632 52.3218 50.5095C52.3214 52.7075 51.7005 54.3671 50.423 55.5827V55.5827Z" fill="#767793" fill-opacity="0.63"/>
</svg>
