<svg width="24" height="24" viewBox="0 0 24 24" fill="none" xmlns="http://www.w3.org/2000/svg">
<path d="M22.0959 2.34871C20.8536 0.834151 19.1489 0 17.2955 0C15.9101 0 14.6414 0.492299 13.5245 1.46311C12.9609 1.95314 12.4502 2.55267 11.9999 3.25243C11.5499 2.55288 11.039 1.95314 10.4752 1.46311C9.35846 0.492299 8.08974 0 6.70437 0C4.85099 0 3.1461 0.834151 1.90374 2.34871C0.676212 3.84557 7.62939e-06 5.89051 7.62939e-06 8.10709C7.62939e-06 10.3885 0.756411 12.4769 2.38036 14.6794C3.83311 16.6497 5.92105 18.6497 8.33894 20.9657C9.16456 21.7567 10.1004 22.6532 11.0721 23.6081C11.3288 23.8609 11.6583 24 11.9999 24C12.3414 24 12.671 23.8609 12.9273 23.6085C13.8991 22.6534 14.8355 21.7565 15.6615 20.9651C18.079 18.6495 20.1669 16.6497 21.6197 14.6792C23.2436 12.4769 23.9998 10.3885 23.9998 8.10688C23.9998 5.89051 23.3236 3.84557 22.0959 2.34871Z" fill="#8B8B96" fill-opacity="0.63"/>
<path d="M11.9999 24C11.6582 24 11.3288 23.8608 11.0721 23.6081C10.1026 22.6552 9.16783 21.7597 8.34313 20.9698L8.33892 20.9657C5.92103 18.6497 3.8331 16.6496 2.38035 14.6794C0.756402 12.4768 0 10.3885 0 8.10707C0 5.8905 0.676203 3.84557 1.90391 2.34871C3.14627 0.834149 4.85097 0 6.70453 0C8.08989 0 9.35862 0.492298 10.4754 1.46311C11.039 1.95314 11.5498 2.55287 11.9999 3.25242C12.4501 2.55287 12.9608 1.95314 13.5246 1.46311C14.6414 0.492298 15.9101 0 17.2954 0C19.1488 0 20.8537 0.834149 22.0961 2.34871C23.3238 3.84557 23.9998 5.8905 23.9998 8.10707C23.9998 10.3885 23.2436 12.4768 21.6196 14.6792C20.1669 16.6496 18.0791 18.6495 15.6616 20.9653C14.8354 21.7564 13.8992 22.6533 12.9275 23.6085C12.671 23.8608 12.3414 24 11.9999 24V24ZM6.70453 1.58021C5.24831 1.58021 3.91055 2.23345 2.93735 3.41974C1.94969 4.62394 1.40569 6.28853 1.40569 8.10707C1.40569 10.0258 2.04014 11.7419 3.46268 13.6712C4.8376 15.536 6.88269 17.4949 9.25059 19.7631L9.25498 19.7673C10.0828 20.5602 11.0212 21.4592 11.9979 22.4191C12.9804 21.4574 13.9203 20.557 14.7497 19.7627C17.1175 17.4945 19.1624 15.536 20.5373 13.6712C21.9596 11.7419 22.5941 10.0258 22.5941 8.10707C22.5941 6.28853 22.0501 4.62394 21.0624 3.41974C20.0894 2.23345 18.7515 1.58021 17.2954 1.58021C16.2287 1.58021 15.2493 1.96137 14.3845 2.71299C13.6138 3.38311 13.0769 4.23023 12.7622 4.82296C12.6003 5.12776 12.3154 5.3097 11.9999 5.3097C11.6844 5.3097 11.3995 5.12776 11.2376 4.82296C10.9231 4.23023 10.3862 3.38311 9.61533 2.71299C8.75053 1.96137 7.77111 1.58021 6.70453 1.58021V1.58021Z" fill="#ffffff"/>
</svg>
