<svg width="24" height="24" viewBox="0 0 24 24" fill="none" xmlns="http://www.w3.org/2000/svg">
<path d="M17.2289 0.545715C15.1859 0.545715 13.2734 1.47074 12 3.02062C10.7266 1.47069 8.81417 0.545715 6.77106 0.545715C3.0375 0.545715 0 3.58317 0 7.31678C0 10.2404 1.7433 13.6219 5.18136 17.3676C7.82722 20.25 10.7055 22.4819 11.5246 23.0973L11.9998 23.4543L12.4751 23.0973C13.2942 22.4819 16.1726 20.2502 18.8185 17.3677C22.2567 13.622 24 10.2404 24 7.31678C24 3.58317 20.9625 0.545715 17.2289 0.545715ZM17.6527 16.2975C15.4764 18.6684 13.135 20.585 11.9998 21.4683C10.8647 20.585 8.52343 18.6684 6.34713 16.2975C3.23003 12.9016 1.58242 9.79606 1.58242 7.31678C1.58242 4.45577 3.91005 2.12813 6.77106 2.12813C8.65382 2.12813 10.3923 3.15428 11.308 4.80617L12 6.05448L12.692 4.80617C13.6077 3.15433 15.3461 2.12813 17.2289 2.12813C20.09 2.12813 22.4176 4.45571 22.4176 7.31678C22.4176 9.79617 20.7699 12.9017 17.6527 16.2975Z" fill="#B0B0BB"/>
</svg>
