<svg width="24" height="24" viewBox="0 0 24 24" fill="none" xmlns="http://www.w3.org/2000/svg">
<g clip-path="url(#clip0)">
<path d="M0.33985 2.00261C-0.11015 1.55261 -0.11015 0.803662 0.33985 0.337927C0.805584 -0.112073 1.5388 -0.112073 2.00454 0.337927L11.9937 10.3439L21.9996 0.337927C22.4496 -0.112073 23.1986 -0.112073 23.6475 0.337927C24.1133 0.803662 24.1133 1.55366 23.6475 2.00261L13.6584 11.9928L23.6475 21.9988C24.1133 22.4488 24.1133 23.1977 23.6475 23.6635C23.1975 24.1135 22.4486 24.1135 21.9996 23.6635L11.9937 13.6575L2.00454 23.6635C1.5388 24.1135 0.805584 24.1135 0.33985 23.6635C-0.11015 23.1977 -0.11015 22.4477 0.33985 21.9988L10.329 11.9928L0.33985 2.00261Z" fill="white"/>
</g>
<defs>
<clipPath id="clip0">
<rect width="24" height="24" fill="white"/>
</clipPath>
</defs>
</svg>
