<svg width="132" height="69" viewBox="0 0 132 69" fill="none" xmlns="http://www.w3.org/2000/svg">
<rect x="57" y="30" width="7" height="7" fill="white"/>
<rect x="69" y="22" width="7" height="8" fill="white"/>
<rect x="69" y="30" width="7" height="7" fill="white"/>
<rect x="57" y="22" width="7" height="8" fill="white"/>
<path d="M8.304 49.92C9.888 49.92 10.984 50.408 11.592 51.384C12.2 52.344 12.504 53.68 12.504 55.392V61.536C12.504 61.952 12.368 62.304 12.096 62.592C11.824 62.864 11.48 63 11.064 63C10.648 63 10.304 62.864 10.032 62.592C9.76 62.304 9.624 61.952 9.624 61.536V55.392C9.624 54.512 9.448 53.824 9.096 53.328C8.76 52.816 8.16 52.56 7.296 52.56C6.4 52.56 5.696 52.832 5.184 53.376C4.688 53.904 4.44 54.576 4.44 55.392V61.536C4.44 61.952 4.304 62.304 4.032 62.592C3.76 62.864 3.416 63 3 63C2.584 63 2.24 62.864 1.968 62.592C1.696 62.304 1.56 61.952 1.56 61.536V46.704C1.56 46.288 1.696 45.944 1.968 45.672C2.24 45.384 2.584 45.24 3 45.24C3.416 45.24 3.76 45.384 4.032 45.672C4.304 45.944 4.44 46.288 4.44 46.704V52.008C4.872 51.432 5.416 50.944 6.072 50.544C6.744 50.128 7.488 49.92 8.304 49.92ZM27.9585 56.592C27.9585 57.872 27.6705 59.024 27.0945 60.048C26.5185 61.056 25.7265 61.84 24.7185 62.4C23.7265 62.96 22.6305 63.24 21.4305 63.24C20.2145 63.24 19.1105 62.96 18.1185 62.4C17.1265 61.84 16.3425 61.056 15.7665 60.048C15.1905 59.024 14.9025 57.872 14.9025 56.592C14.9025 55.312 15.1905 54.168 15.7665 53.16C16.3425 52.136 17.1265 51.344 18.1185 50.784C19.1105 50.208 20.2145 49.92 21.4305 49.92C22.6305 49.92 23.7265 50.208 24.7185 50.784C25.7265 51.344 26.5185 52.136 27.0945 53.16C27.6705 54.168 27.9585 55.312 27.9585 56.592ZM25.0785 56.592C25.0785 55.808 24.9105 55.112 24.5745 54.504C24.2545 53.88 23.8145 53.4 23.2545 53.064C22.7105 52.728 22.1025 52.56 21.4305 52.56C20.7585 52.56 20.1425 52.728 19.5825 53.064C19.0385 53.4 18.5985 53.88 18.2625 54.504C17.9425 55.112 17.7825 55.808 17.7825 56.592C17.7825 57.376 17.9425 58.072 18.2625 58.68C18.5985 59.288 19.0385 59.76 19.5825 60.096C20.1425 60.432 20.7585 60.6 21.4305 60.6C22.1025 60.6 22.7105 60.432 23.2545 60.096C23.8145 59.76 24.2545 59.288 24.5745 58.68C24.9105 58.072 25.0785 57.376 25.0785 56.592ZM45.1727 49.92C46.7567 49.92 47.8527 50.408 48.4607 51.384C49.0687 52.344 49.3727 53.68 49.3727 55.392V61.536C49.3727 61.952 49.2367 62.304 48.9647 62.592C48.6927 62.864 48.3487 63 47.9327 63C47.5167 63 47.1727 62.864 46.9007 62.592C46.6287 62.304 46.4927 61.952 46.4927 61.536V55.392C46.4927 54.512 46.3167 53.824 45.9647 53.328C45.6287 52.816 45.0287 52.56 44.1647 52.56C43.2687 52.56 42.5647 52.832 42.0527 53.376C41.5567 53.904 41.3087 54.576 41.3087 55.392V61.536C41.3087 61.952 41.1727 62.304 40.9007 62.592C40.6287 62.864 40.2847 63 39.8687 63C39.4527 63 39.1087 62.864 38.8367 62.592C38.5647 62.304 38.4287 61.952 38.4287 61.536V55.392C38.4287 54.512 38.2527 53.824 37.9007 53.328C37.5647 52.816 36.9647 52.56 36.1007 52.56C35.2047 52.56 34.5007 52.832 33.9887 53.376C33.4927 53.904 33.2447 54.576 33.2447 55.392V61.536C33.2447 61.952 33.1087 62.304 32.8367 62.592C32.5647 62.864 32.2207 63 31.8047 63C31.3887 63 31.0447 62.864 30.7727 62.592C30.5007 62.304 30.3647 61.952 30.3647 61.536V51.624C30.3647 51.208 30.5007 50.864 30.7727 50.592C31.0447 50.304 31.3887 50.16 31.8047 50.16C32.2207 50.16 32.5647 50.304 32.8367 50.592C33.1087 50.864 33.2447 51.208 33.2447 51.624V52.008C33.6767 51.432 34.2207 50.944 34.8767 50.544C35.5487 50.128 36.2927 49.92 37.1087 49.92C39.1247 49.92 40.4127 50.8 40.9727 52.56C41.3407 51.888 41.8927 51.28 42.6287 50.736C43.3807 50.192 44.2287 49.92 45.1727 49.92ZM64.0097 56.28C63.9937 56.664 63.8417 56.976 63.5537 57.216C63.2657 57.456 62.9297 57.576 62.5457 57.576H54.6257C54.8177 58.52 55.2577 59.264 55.9457 59.808C56.6337 60.336 57.4097 60.6 58.2737 60.6C58.9297 60.6 59.4417 60.544 59.8097 60.432C60.1777 60.304 60.4657 60.176 60.6737 60.048C60.8977 59.904 61.0497 59.808 61.1297 59.76C61.4177 59.616 61.6897 59.544 61.9457 59.544C62.2817 59.544 62.5697 59.664 62.8097 59.904C63.0497 60.144 63.1697 60.424 63.1697 60.744C63.1697 61.176 62.9457 61.568 62.4977 61.92C62.0497 62.288 61.4497 62.6 60.6977 62.856C59.9457 63.112 59.1857 63.24 58.4177 63.24C57.0737 63.24 55.8977 62.96 54.8897 62.4C53.8977 61.84 53.1297 61.072 52.5857 60.096C52.0417 59.104 51.7697 57.992 51.7697 56.76C51.7697 55.384 52.0577 54.176 52.6337 53.136C53.2097 52.096 53.9697 51.304 54.9137 50.76C55.8577 50.2 56.8657 49.92 57.9377 49.92C58.9937 49.92 59.9857 50.208 60.9137 50.784C61.8577 51.36 62.6097 52.136 63.1697 53.112C63.7297 54.088 64.0097 55.144 64.0097 56.28ZM57.9377 52.56C56.0817 52.56 54.9857 53.432 54.6497 55.176H60.9377V55.008C60.8737 54.336 60.5457 53.76 59.9537 53.28C59.3617 52.8 58.6897 52.56 57.9377 52.56ZM65.6676 61.008C65.5236 60.816 65.4516 60.576 65.4516 60.288C65.4516 59.872 65.6596 59.52 66.0756 59.232C66.2996 59.088 66.5316 59.016 66.7716 59.016C67.1076 59.016 67.4276 59.168 67.7316 59.472C68.2116 59.968 68.7076 60.336 69.2196 60.576C69.7476 60.816 70.3796 60.936 71.1156 60.936C72.3636 60.888 72.9876 60.416 72.9876 59.52C72.9876 59.056 72.7716 58.704 72.3396 58.464C71.9236 58.224 71.2676 57.984 70.3716 57.744C69.4436 57.488 68.6836 57.232 68.0916 56.976C67.5156 56.72 67.0116 56.336 66.5796 55.824C66.1636 55.296 65.9556 54.592 65.9556 53.712C65.9556 52.944 66.1716 52.28 66.6036 51.72C67.0516 51.144 67.6276 50.704 68.3316 50.4C69.0516 50.08 69.8116 49.92 70.6116 49.92C71.4276 49.92 72.2436 50.072 73.0596 50.376C73.8756 50.68 74.5156 51.128 74.9796 51.72C75.1876 51.976 75.2916 52.264 75.2916 52.584C75.2916 52.952 75.1396 53.256 74.8356 53.496C74.6116 53.672 74.3556 53.76 74.0676 53.76C73.7156 53.76 73.4276 53.648 73.2036 53.424C72.9156 53.072 72.5396 52.792 72.0756 52.584C71.6276 52.376 71.1156 52.272 70.5396 52.272C69.3236 52.272 68.7156 52.712 68.7156 53.592C68.7156 53.944 68.8276 54.232 69.0516 54.456C69.2756 54.664 69.5556 54.832 69.8916 54.96C70.2436 55.072 70.7316 55.216 71.3556 55.392C72.2196 55.632 72.9396 55.88 73.5156 56.136C74.0916 56.392 74.5796 56.784 74.9796 57.312C75.3796 57.84 75.5796 58.536 75.5796 59.4C75.5796 60.184 75.3476 60.872 74.8836 61.464C74.4196 62.04 73.8196 62.48 73.0836 62.784C72.3636 63.088 71.6196 63.24 70.8516 63.24C69.7956 63.24 68.8116 63.064 67.8996 62.712C66.9876 62.36 66.2436 61.792 65.6676 61.008ZM84.6377 49.92C85.7417 49.92 86.7417 50.208 87.6377 50.784C88.5337 51.344 89.2377 52.128 89.7497 53.136C90.2777 54.144 90.5417 55.288 90.5417 56.568C90.5417 57.848 90.2857 59 89.7737 60.024C89.2617 61.032 88.5577 61.824 87.6617 62.4C86.7817 62.96 85.8057 63.24 84.7337 63.24C83.9657 63.24 83.2377 63.088 82.5497 62.784C81.8777 62.464 81.3177 62.08 80.8697 61.632V66.336C80.8697 66.752 80.7337 67.096 80.4617 67.368C80.1897 67.656 79.8457 67.8 79.4297 67.8C79.0137 67.8 78.6697 67.664 78.3977 67.392C78.1257 67.12 77.9897 66.768 77.9897 66.336V51.624C77.9897 51.208 78.1257 50.864 78.3977 50.592C78.6697 50.304 79.0137 50.16 79.4297 50.16C79.8457 50.16 80.1897 50.304 80.4617 50.592C80.7337 50.864 80.8697 51.208 80.8697 51.624V51.72C81.2537 51.24 81.7897 50.824 82.4777 50.472C83.1657 50.104 83.8857 49.92 84.6377 49.92ZM84.2777 60.6C85.3017 60.6 86.1417 60.216 86.7977 59.448C87.4537 58.68 87.7817 57.72 87.7817 56.568C87.7817 55.416 87.4537 54.464 86.7977 53.712C86.1577 52.944 85.3177 52.56 84.2777 52.56C83.2377 52.56 82.3897 52.944 81.7337 53.712C81.0777 54.464 80.7497 55.416 80.7497 56.568C80.7497 57.72 81.0777 58.68 81.7337 59.448C82.3897 60.216 83.2377 60.6 84.2777 60.6ZM99.6148 49.92C100.095 49.92 100.495 50.056 100.815 50.328C101.151 50.6 101.319 50.92 101.319 51.288C101.319 51.784 101.191 52.16 100.935 52.416C100.679 52.656 100.375 52.776 100.023 52.776C99.7828 52.776 99.5108 52.72 99.2068 52.608C99.1588 52.592 99.0468 52.56 98.8708 52.512C98.7108 52.464 98.5348 52.44 98.3428 52.44C97.9268 52.44 97.5268 52.568 97.1428 52.824C96.7588 53.08 96.4388 53.472 96.1828 54C95.9428 54.512 95.8228 55.128 95.8228 55.848V61.536C95.8228 61.952 95.6868 62.304 95.4148 62.592C95.1428 62.864 94.7988 63 94.3828 63C93.9668 63 93.6228 62.864 93.3508 62.592C93.0788 62.304 92.9428 61.952 92.9428 61.536V51.624C92.9428 51.208 93.0788 50.864 93.3508 50.592C93.6228 50.304 93.9668 50.16 94.3828 50.16C94.7988 50.16 95.1428 50.304 95.4148 50.592C95.6868 50.864 95.8228 51.208 95.8228 51.624V51.936C96.1908 51.28 96.7188 50.784 97.4068 50.448C98.0948 50.096 98.8308 49.92 99.6148 49.92ZM106.061 61.536C106.061 61.952 105.925 62.304 105.653 62.592C105.381 62.864 105.037 63 104.621 63C104.205 63 103.861 62.864 103.589 62.592C103.317 62.304 103.181 61.952 103.181 61.536V51.624C103.181 51.208 103.317 50.864 103.589 50.592C103.861 50.304 104.205 50.16 104.621 50.16C105.037 50.16 105.381 50.304 105.653 50.592C105.925 50.864 106.061 51.208 106.061 51.624V61.536ZM104.597 48.6C104.053 48.6 103.669 48.512 103.445 48.336C103.221 48.16 103.109 47.848 103.109 47.4V46.944C103.109 46.496 103.229 46.184 103.469 46.008C103.709 45.832 104.093 45.744 104.621 45.744C105.181 45.744 105.573 45.832 105.797 46.008C106.021 46.184 106.133 46.496 106.133 46.944V47.4C106.133 47.864 106.013 48.184 105.773 48.36C105.549 48.52 105.157 48.6 104.597 48.6ZM115.885 49.92C117.517 49.92 118.645 50.408 119.269 51.384C119.893 52.344 120.205 53.68 120.205 55.392V61.536C120.205 61.952 120.069 62.304 119.797 62.592C119.525 62.864 119.181 63 118.765 63C118.349 63 118.005 62.864 117.733 62.592C117.461 62.304 117.325 61.952 117.325 61.536V55.392C117.325 54.512 117.141 53.824 116.773 53.328C116.405 52.816 115.773 52.56 114.877 52.56C113.949 52.56 113.221 52.832 112.693 53.376C112.165 53.904 111.901 54.576 111.901 55.392V61.536C111.901 61.952 111.765 62.304 111.493 62.592C111.221 62.864 110.877 63 110.461 63C110.045 63 109.701 62.864 109.429 62.592C109.157 62.304 109.021 61.952 109.021 61.536V51.624C109.021 51.208 109.157 50.864 109.429 50.592C109.701 50.304 110.045 50.16 110.461 50.16C110.877 50.16 111.221 50.304 111.493 50.592C111.765 50.864 111.901 51.208 111.901 51.624V52.032C112.333 51.456 112.893 50.96 113.581 50.544C114.285 50.128 115.053 49.92 115.885 49.92ZM129.51 60.288C129.734 60.288 129.934 60.4 130.11 60.624C130.302 60.832 130.398 61.112 130.398 61.464C130.398 61.896 130.158 62.264 129.678 62.568C129.214 62.856 128.686 63 128.094 63C127.102 63 126.262 62.792 125.574 62.376C124.902 61.944 124.566 61.04 124.566 59.664V53.04H123.462C123.078 53.04 122.758 52.912 122.502 52.656C122.246 52.4 122.118 52.08 122.118 51.696C122.118 51.328 122.246 51.024 122.502 50.784C122.758 50.528 123.078 50.4 123.462 50.4H124.566V48.864C124.566 48.448 124.702 48.104 124.974 47.832C125.262 47.544 125.614 47.4 126.03 47.4C126.43 47.4 126.766 47.544 127.038 47.832C127.31 48.104 127.446 48.448 127.446 48.864V50.4H129.15C129.534 50.4 129.854 50.528 130.11 50.784C130.366 51.04 130.494 51.36 130.494 51.744C130.494 52.112 130.366 52.424 130.11 52.68C129.854 52.92 129.534 53.04 129.15 53.04H127.446V59.544C127.446 59.88 127.534 60.128 127.71 60.288C127.886 60.432 128.126 60.504 128.43 60.504C128.558 60.504 128.734 60.472 128.958 60.408C129.15 60.328 129.334 60.288 129.51 60.288Z" fill="white"/>
<line x1="34.9028" y1="31.9175" x2="62.8132" y2="1.97719" stroke="white" stroke-width="3"/>
<line y1="-1.5" x2="40.9318" y2="-1.5" transform="matrix(-0.681876 -0.731467 -0.731467 0.681876 98.418 32.9403)" stroke="white" stroke-width="3"/>
</svg>
