<svg width="24" height="24" viewBox="0 0 24 24" fill="none" xmlns="http://www.w3.org/2000/svg">
<path d="M17.7433 2.34H15.5433V1.26C15.5425 0.984221 15.3192 0.760783 15.0433 0.760002H8.57329C8.29751 0.760783 8.07407 0.984221 8.07329 1.26V2.34H5.87329C4.49282 2.34047 3.37392 3.45938 3.37329 4.84V20.76C3.37392 22.1405 4.49282 23.2594 5.87329 23.26H17.7433C19.1239 23.2594 20.2428 22.1405 20.2433 20.76V4.84C20.2428 3.45938 19.1239 2.34047 17.7433 2.34ZM9.07329 1.76H14.5433V3.83H9.07329V1.76ZM19.2433 20.76C19.2409 21.5873 18.5708 22.2577 17.7433 22.26H5.87329C5.04595 22.2577 4.37563 21.5873 4.37329 20.76V4.84C4.37563 4.0125 5.04595 3.3425 5.87329 3.34H8.07329V4.335C8.07407 4.61078 8.29751 4.83422 8.57329 4.835H15.0433C15.3192 4.83422 15.5425 4.61078 15.5433 4.335V3.34H17.7433C18.5708 3.3425 19.2409 4.0125 19.2433 4.84V20.76Z" fill="#B0B0BB"/>
<path d="M16.0534 15.055H7.56342C7.28717 15.055 7.06342 15.2789 7.06342 15.555C7.06342 15.8311 7.28717 16.055 7.56342 16.055H16.0483C16.3245 16.0563 16.5495 15.8336 16.5509 15.5575C16.5522 15.2813 16.3293 15.0563 16.0534 15.055V15.055Z" fill="#B0B0BB"/>
<path d="M16.0534 18.025H7.56342C7.28717 18.025 7.06342 18.2489 7.06342 18.525C7.06342 18.8012 7.28717 19.025 7.56342 19.025H16.0483C16.3245 19.0264 16.5495 18.8036 16.5509 18.5275C16.5522 18.2514 16.3293 18.0264 16.0534 18.025V18.025Z" fill="#B0B0BB"/>
<path d="M11.8083 9.975C12.8217 9.975 13.6433 9.15344 13.6433 8.14C13.6433 7.12656 12.8217 6.305 11.8083 6.305C10.7948 6.305 9.97327 7.12656 9.97327 8.14C9.97389 9.15313 10.7951 9.97422 11.8083 9.975ZM11.8083 7.31C12.2694 7.31 12.6433 7.68375 12.6433 8.145C12.6433 8.60609 12.2694 8.98 11.8083 8.98C11.3472 8.98 10.9733 8.60609 10.9733 8.145C10.974 7.68422 11.3475 7.31078 11.8083 7.31Z" fill="#B0B0BB"/>
<path d="M9.80829 13.71C10.0841 13.7092 10.3075 13.4858 10.3083 13.21V12.81C10.3083 11.9816 10.98 11.31 11.8083 11.31C12.6369 11.31 13.3083 11.9816 13.3083 12.81V13.21C13.3083 13.4862 13.5322 13.71 13.8083 13.71C14.0845 13.71 14.3083 13.4862 14.3083 13.21V12.81C14.3083 11.4294 13.1889 10.31 11.8083 10.31C10.4277 10.31 9.30829 11.4294 9.30829 12.81V13.21C9.30907 13.4858 9.53251 13.7092 9.80829 13.71V13.71Z" fill="#B0B0BB"/>
</svg>
